# xmcd CD database file
#
# Track frame offsets:
#	150
#	27290
#	52058
#	79623
#	99839
#	120600
#	137478
#	157095
#	171792
#	193474
#	222166
#	241963
#	260040
#	278334
#	297132
#	326202
#
# Disc length: 4684 seconds
#
# Revision: 1
# Processed by: cddbd v1.5.2PL0 Copyright (c) Steve Scherf et al.
# Submitted via: Feurio! 1.68 - http://www.feurio.com
#
DISCID=e9124a10
DTITLE=Various Artist - Ibiza Dancefloor Summer (2007)
DYEAR=1900
DGENRE=
TTITLE0=David Guetta - Love Is Gone (Fred Rister and Jo
TTITLE1=Get Far - Shining Star (Pornocult Remix)
TTITLE2=David Vendetta Vs Keith Thomps - Break 4 Love (David Vendetta M
TTITLE3=Tim Deluxe Feat. Simon Franks - Let The Beat Rolls (Club Mix)
TTITLE4=Dada Feat. Sandy Rivera and Trix - Lollipop (Club Mix)
TTITLE5=Stylophonic - Dancefloor (Tocadisco Remix)
TTITLE6=Kurd Maverick - Let's Work (Original Mix)
TTITLE7=Redlight Orchestra - Uma Historia De Ifa (Elegibo)
TTITLE8=Sunfreakz Feat. A. Britton - Counting Down The Days (Axwell
TTITLE9=Lionel Richie - All Around The World (Bob Sinc
TTITLE10=Bob Sinclar and Gary Pine - Give A Lil Love (Erik Kupper R
TTITLE11=Steve Angello and Sebastian Ingr - Umbrella (Original Instrumenta
TTITLE12=Yves Larock Feat. Jabba - Rise Up (Lunatik Yves Remix)
TTITLE13=De Souza Feat. Shena - Guilty (Eddie Thoneick Remix)
TTITLE14=Offer Nissim Feat. Maya - First Time (Original Club Mix)
TTITLE15=Carl Kennedy Vs Roachford - Ride The Storm (Ck's and Club Mi
EXTD=
EXTT0=
EXTT1=
EXTT2=
EXTT3=
EXTT4=
EXTT5=
EXTT6=
EXTT7=
EXTT8=
EXTT9=
EXTT10=
EXTT11=
EXTT12=
EXTT13=
EXTT14=
EXTT15=
PLAYORDER=
